<?xml version="1.0" encoding="utf-8"?>
<svg width="95" height="35" viewBox="0 0 95 35" fill="none" xmlns="http://www.w3.org/2000/svg">
  <g>
    <path d="M7.722 12.564C7.158 12.564 6.756 12.42 6.516 12.132C6.276 11.844 6.126 11.484 6.066 11.052L5.976 11.052C5.772 11.592 5.445 12.015 4.995 12.321C4.545 12.627 3.942 12.78 3.186 12.78C2.214 12.78 1.44 12.528 0.863998 12.024C0.287998 11.52 0 10.83 0 9.954C0 9.09 0.314999 8.424 0.945 7.956C1.575 7.488 2.592 7.254 3.996 7.254L5.976 7.254L5.976 6.34162C5.976 5.66175 5.784 5.15184 5.4 4.81191C5.016 4.47197 4.47 4.302 3.762 4.302C3.138 4.302 2.628 4.425 2.232 4.671C1.836 4.917 1.518 5.25 1.278 5.67L0.306 4.95C0.425999 4.71 0.588001 4.47502 0.792 4.24505C0.995998 4.01508 1.248 3.81183 1.548 3.6353C1.848 3.45877 2.19 3.31875 2.574 3.21525C2.958 3.11175 3.384 3.06 3.852 3.06C4.944 3.06 5.811 3.33661 6.453 3.88983C7.095 4.44305 7.416 5.21269 7.416 6.19875L7.416 11.322L8.712 11.322L8.712 12.564L7.722 12.564ZM3.438 11.574C3.81 11.574 4.149 11.529 4.455 11.439C4.761 11.349 5.028 11.229 5.256 11.079C5.484 10.929 5.661 10.749 5.787 10.539C5.913 10.329 5.976 10.104 5.976 9.864L5.976 8.334L3.996 8.334C3.132 8.334 2.502 8.454 2.106 8.694C1.71 8.934 1.512 9.282 1.512 9.738L1.512 10.116C1.512 10.596 1.683 10.959 2.025 11.205C2.367 11.451 2.838 11.574 3.438 11.574L3.438 11.574ZM15.12 12.78C14.148 12.78 13.311 12.615 12.609 12.285C11.907 11.955 11.31 11.514 10.818 10.962L11.79 10.116C12.234 10.584 12.72 10.944 13.248 11.196C13.776 11.448 14.412 11.574 15.156 11.574C15.876 11.574 16.467 11.445 16.929 11.187C17.391 10.929 17.622 10.524 17.622 9.972C17.622 9.732 17.577 9.531 17.487 9.369C17.397 9.207 17.274 9.078 17.118 8.982C16.962 8.886 16.788 8.811 16.596 8.757C16.404 8.703 16.2 8.658 15.984 8.622L14.526 8.406C14.202 8.358 13.851 8.292 13.473 8.208C13.095 8.124 12.75 7.989 12.438 7.803C12.126 7.617 11.865 7.368 11.655 7.056C11.445 6.744 11.34 6.336 11.34 5.832C11.34 5.364 11.433 4.959 11.619 4.617C11.805 4.275 12.066 3.987 12.402 3.753C12.738 3.519 13.134 3.345 13.59 3.231C14.046 3.117 14.544 3.06 15.084 3.06C15.924 3.06 16.653 3.192 17.271 3.456C17.889 3.72 18.42 4.086 18.864 4.554L17.928 5.436C17.82 5.304 17.685 5.169 17.523 5.031C17.361 4.893 17.163 4.767 16.929 4.653C16.695 4.539 16.422 4.446 16.11 4.374C15.798 4.302 15.438 4.266 15.03 4.266C14.298 4.266 13.737 4.392 13.347 4.644C12.957 4.896 12.762 5.262 12.762 5.742C12.762 5.982 12.807 6.183 12.897 6.345C12.987 6.507 13.11 6.636 13.266 6.732C13.422 6.828 13.599 6.903 13.797 6.957C13.995 7.011 14.196 7.056 14.4 7.092L15.858 7.308C16.194 7.356 16.548 7.422 16.92 7.506C17.292 7.59 17.634 7.725 17.946 7.911C18.258 8.097 18.519 8.346 18.729 8.658C18.939 8.97 19.044 9.378 19.044 9.882C19.044 10.806 18.687 11.52 17.973 12.024C17.259 12.528 16.308 12.78 15.12 12.78L15.12 12.78ZM26.262 12.564C25.554 12.564 25.035 12.3664 24.705 11.9713C24.375 11.5761 24.21 11.0673 24.21 10.4448L24.21 4.518L21.114 4.518L21.114 3.276L23.418 3.276C23.73 3.276 23.949 3.213 24.075 3.087C24.201 2.961 24.264 2.742 24.264 2.43L24.264 0L25.65 0L25.65 3.276L29.88 3.276L29.88 4.518L25.65 4.518L25.65 11.322L29.88 11.322L29.88 12.564L26.262 12.564ZM32.598 11.322L35.316 11.322L35.316 4.518L32.598 4.518L32.598 3.276L36.756 3.276L36.756 5.616L36.846 5.616C37.038 4.884 37.401 4.311 37.935 3.897C38.469 3.483 39.15 3.276 39.978 3.276L41.274 3.276L41.274 4.716L39.528 4.716C38.7 4.716 38.031 4.95534 37.521 5.43403C37.011 5.91272 36.756 6.54103 36.756 7.31897L36.756 11.322L40.356 11.322L40.356 12.564L32.598 12.564L32.598 11.322ZM47.412 12.78C46.764 12.78 46.179 12.666 45.657 12.438C45.135 12.21 44.691 11.883 44.325 11.457C43.959 11.031 43.68 10.521 43.488 9.927C43.296 9.333 43.2 8.664 43.2 7.92C43.2 7.188 43.296 6.522 43.488 5.922C43.68 5.322 43.959 4.809 44.325 4.383C44.691 3.957 45.135 3.63 45.657 3.402C46.179 3.174 46.764 3.06 47.412 3.06C48.06 3.06 48.645 3.174 49.167 3.402C49.689 3.63 50.133 3.957 50.499 4.383C50.865 4.809 51.144 5.322 51.336 5.922C51.528 6.522 51.624 7.188 51.624 7.92C51.624 8.664 51.528 9.333 51.336 9.927C51.144 10.521 50.865 11.031 50.499 11.457C50.133 11.883 49.689 12.21 49.167 12.438C48.645 12.666 48.06 12.78 47.412 12.78L47.412 12.78ZM47.412 11.538C48.216 11.538 48.864 11.298 49.356 10.818C49.848 10.338 50.094 9.594 50.094 8.586L50.094 7.254C50.094 6.246 49.848 5.502 49.356 5.022C48.864 4.542 48.216 4.302 47.412 4.302C46.608 4.302 45.96 4.542 45.468 5.022C44.976 5.502 44.73 6.246 44.73 7.254L44.73 8.586C44.73 9.594 44.976 10.338 45.468 10.818C45.96 11.298 46.608 11.538 47.412 11.538L47.412 11.538Z" fill="#FFFFFF" transform="translate(42.188 9.886)" />
    <g>
      <path d="M0 23.7131C0 23.7131 1.52254 22.8879 3.4895 22.2925C5.45645 21.6971 7.86783 21.3315 7.86783 21.3315L11.9002 7.05612L11.9002 7.05612L11.9002 7.05612C11.9002 7.05612 12.2567 6.56791 12.5328 6.56791C12.8088 6.56791 13.0045 7.05612 13.0045 7.05612L17.0846 21.3315C17.0846 21.3315 18.9252 21.5512 20.9041 22.1629C22.8829 22.7746 25 23.7783 25 23.7783L18.2368 1.34598C18.2368 1.34598 17.9338 0.779951 17.5018 0.443456C17.0697 0.106961 16.5086 0 16.5086 0L8.52629 0C8.52629 0 7.97675 0.188932 7.52411 0.525427C7.07146 0.861923 6.71572 1.34598 6.71572 1.34598L0 23.7131Z" fill="#FCFCFC" fill-rule="evenodd" />
      <path d="M0.283245 0C0.283245 0 -0.195982 1.45778 0.0922604 3.38607C0.380503 5.31436 1.61535 6.15627 1.61535 6.15627C1.61535 6.15627 1.95216 4.71087 3.37428 4.74656C4.79641 4.78225 5.07167 6.15627 5.07167 6.15627C5.07167 6.15627 4.90755 8.00684 5.5082 9.22213C6.10887 10.4374 7.47432 11.0174 7.47432 11.0174C7.47432 11.0174 7.08613 9.56178 7.49356 8.48924C7.90099 7.4167 9.10403 6.72728 9.10403 6.72728C9.10403 6.72728 10.7208 6.34904 11.8369 4.36834C12.953 2.38763 12.3719 0.635002 12.3719 0.635002C12.3719 0.635002 9.34969 2.33843 5.50832 2.10826C1.66695 1.8781 0.283245 0 0.283245 0Z" fill="#FCFCFC" fill-rule="evenodd" transform="translate(6.913 23.983)" />
    </g>
  </g>
</svg>