<?xml version="1.0" encoding="UTF-8" standalone="no"?><!DOCTYPE svg PUBLIC "-//W3C//DTD SVG 1.1//EN" "http://www.w3.org/Graphics/SVG/1.1/DTD/svg11.dtd"><svg width="100%" height="100%" viewBox="0 0 625 267" version="1.1" xmlns="http://www.w3.org/2000/svg" xmlns:xlink="http://www.w3.org/1999/xlink" xml:space="preserve" xmlns:serif="http://www.serif.com/" style="fill-rule:evenodd;clip-rule:evenodd;stroke-linejoin:round;stroke-miterlimit:2;"><g id="logo"><path d="M0,0l235.087,0c38.754,-1.292 59.316,34.871 57.725,72.113c-1.598,37.412 -24.042,65.027 -59.468,65.362l-145.624,0.108l-0.108,45.379l116.451,0.588l0.172,83.116l-204.237,0l0,-83.566l79.006,0l0,-99.834l-79.131,0l0.125,-83.266Zm88.371,83.412l-0.461,45.066l148.092,0.461c31.242,-8.091 26.105,-44.256 1.382,-45.855l-149.013,0.329Z" fill="currentColor" stroke="currentColor"  stroke-width="5"/><path d="M625,0l-224.355,-0.034c-93.328,1.025 -87.242,138.617 -13.279,137.315l183.781,0.539c22.032,1.834 21.436,44.471 -0.135,45.406l-237.187,-0.497l0,83.937l241.365,0c64.391,-1.639 69.106,-135.863 -3.618,-138.213l-183.84,0.552c-24.377,-1.928 -28.132,-44.949 -0.525,-45.743l237.792,0.168l0,-83.43Z" fill="currentColor" stroke="currentColor"  stroke-width="5"/></g></svg>