<?xml version="1.0" encoding="UTF-8" standalone="no"?><!DOCTYPE svg PUBLIC "-//W3C//DTD SVG 1.1//EN" "http://www.w3.org/Graphics/SVG/1.1/DTD/svg11.dtd"><svg width="100%" height="100%" viewBox="0 0 15 14" version="1.1" xmlns="http://www.w3.org/2000/svg" xmlns:xlink="http://www.w3.org/1999/xlink" xml:space="preserve" xmlns:serif="http://www.serif.com/" style="fill-rule:evenodd;clip-rule:evenodd;stroke-linejoin:round;stroke-miterlimit:2;"><path d="M6.913,0.32c0.051,-0.189 0.222,-0.32 0.418,-0.32c0.196,0 0.367,0.131 0.418,0.32l1.25,4.63c0.025,0.091 0.08,0.171 0.156,0.226c0.076,0.055 0.169,0.083 0.263,0.078l4.789,-0.242c0.195,-0.01 0.373,0.113 0.434,0.299c0.06,0.186 -0.011,0.39 -0.175,0.496l-4.017,2.619c-0.079,0.051 -0.138,0.128 -0.167,0.218c-0.029,0.09 -0.027,0.186 0.007,0.274l1.71,4.48c0.07,0.183 0.008,0.39 -0.15,0.505c-0.158,0.115 -0.374,0.11 -0.526,-0.013l-3.732,-3.011c-0.073,-0.059 -0.165,-0.091 -0.259,-0.091c-0.094,0 -0.186,0.032 -0.259,0.091l-3.732,3.011c-0.152,0.123 -0.368,0.128 -0.526,0.013c-0.158,-0.115 -0.22,-0.322 -0.15,-0.505l1.71,-4.48c0.034,-0.088 0.036,-0.185 0.007,-0.274c-0.029,-0.09 -0.088,-0.167 -0.167,-0.218l-4.017,-2.619c-0.164,-0.107 -0.236,-0.31 -0.175,-0.496c0.06,-0.186 0.238,-0.308 0.434,-0.299l4.789,0.242c0.094,0.005 0.187,-0.023 0.263,-0.078c0.076,-0.055 0.131,-0.135 0.156,-0.226l1.25,-4.63Z" style="fill:currentColor"/></svg>